<svg width="34" height="31" viewBox="0 0 34 31" fill="none" xmlns="http://www.w3.org/2000/svg">
<path fill-rule="evenodd" clip-rule="evenodd" d="M13.1045 0.129773C14.0305 0.0599413 15.2523 0 16.7185 0C18.1847 0 19.4065 0.0599413 20.3324 0.129773C21.9729 0.253475 23.3287 1.2848 24.0134 2.69564L24.8062 4.32935C26.1443 4.37933 27.2873 4.43742 28.2356 4.49469C30.7991 4.6495 32.8377 6.61644 33.066 9.18098C33.2522 11.2732 33.437 14.1556 33.437 17.3602C33.437 20.5648 33.2522 23.4472 33.066 25.5394C32.8377 28.1039 30.7991 30.0709 28.2356 30.2258C25.7436 30.3762 21.9078 30.5324 16.7185 30.5324C11.5292 30.5324 7.6934 30.3762 5.20141 30.2258C2.63785 30.0709 0.599243 28.1039 0.370987 25.5394C0.184773 23.4472 0 20.5648 0 17.3602C0 14.1556 0.18478 11.2732 0.370987 9.18098C0.599243 6.61644 2.63786 4.6495 5.20142 4.49468C6.14974 4.43742 7.29268 4.37933 8.63076 4.32934L9.42358 2.69565C10.1083 1.2848 11.4641 0.253475 13.1045 0.129773ZM9.65957 16.7185C9.65957 12.82 12.82 9.65957 16.7185 9.65957C20.617 9.65957 23.7774 12.82 23.7774 16.7185C23.7774 20.617 20.617 23.7774 16.7185 23.7774C12.82 23.7774 9.65957 20.617 9.65957 16.7185Z" fill="white"/>
</svg>
